<svg xmlns="http://www.w3.org/2000/svg" viewBox="0 0 70.851 17.456"><defs><style>.a{fill:#1d1d1f;}</style></defs><title>Apple Pencil</title><path class="a" d="M23.178,2.03a4.775,4.775,0,0,1,5.009,5,4.828,4.828,0,0,1-5.082,5.019h-3.27v5.2H17.474V2.03Zm-3.343,8.035h2.71c2.057,0,3.227-1.107,3.227-3.026S24.6,4.023,22.556,4.023H19.835Z"/><path class="a" d="M39.013,13.987c-.316,2.025-2.235,3.469-4.776,3.469-3.258,0-5.23-2.2-5.23-5.7,0-3.48,2-5.8,5.135-5.8,3.079,0,5,2.172,5,5.535v.781H31.306v.136a2.908,2.908,0,0,0,2.983,3.206,2.515,2.515,0,0,0,2.563-1.624Zm-7.7-3.311h5.546a2.724,2.724,0,0,0-2.72-2.889A2.86,2.86,0,0,0,31.316,10.676Z"/><path class="a" d="M40.9,6.153h2.172V8.009h.052a3.607,3.607,0,0,1,3.491-2.046c2.446,0,3.848,1.561,3.848,4.1v7.18H48.174V10.508c0-1.666-.78-2.584-2.361-2.584a2.588,2.588,0,0,0-2.637,2.858v6.463H40.9Z"/><path class="a" d="M60,9.97a2.516,2.516,0,0,0-2.6-2.119c-1.761,0-2.921,1.465-2.921,3.848,0,2.436,1.171,3.848,2.941,3.848A2.438,2.438,0,0,0,60,13.492H62.2c-.243,2.362-2.13,3.964-4.8,3.964-3.174,0-5.241-2.172-5.241-5.757,0-3.522,2.067-5.746,5.219-5.746a4.479,4.479,0,0,1,4.8,4.017Z"/><path class="a" d="M63.7,3.232a1.324,1.324,0,1,1,1.319,1.3A1.31,1.31,0,0,1,63.7,3.232Zm.18,2.921h2.277V17.245H63.882Z"/><path class="a" d="M68.574,2.03h2.277V17.245H68.574Z"/><path class="a" d="M14.221,13.439a9.291,9.291,0,0,1-.927,1.667A8.476,8.476,0,0,1,12.1,16.55a2.321,2.321,0,0,1-1.535.676,3.846,3.846,0,0,1-1.418-.339,4.061,4.061,0,0,0-1.526-.337,4.2,4.2,0,0,0-1.57.337,4.224,4.224,0,0,1-1.356.357,2.185,2.185,0,0,1-1.57-.694,8.9,8.9,0,0,1-1.249-1.5A10.337,10.337,0,0,1,.555,12.431,9.592,9.592,0,0,1,0,9.3,5.712,5.712,0,0,1,.75,6.316,4.4,4.4,0,0,1,2.321,4.727a4.23,4.23,0,0,1,2.123-.6,5,5,0,0,1,1.642.382,5.266,5.266,0,0,0,1.3.384,7.777,7.777,0,0,0,1.445-.452A4.773,4.773,0,0,1,10.8,4.094a4.17,4.17,0,0,1,3.266,1.719,3.632,3.632,0,0,0-1.927,3.3,3.639,3.639,0,0,0,1.2,2.743,3.9,3.9,0,0,0,1.194.784c-.1.278-.2.544-.3.8ZM10.894.345a3.679,3.679,0,0,1-.943,2.413A3.213,3.213,0,0,1,7.282,4.075a2.606,2.606,0,0,1-.02-.326,3.778,3.778,0,0,1,1-2.439A3.833,3.833,0,0,1,9.481.4,3.635,3.635,0,0,1,10.876,0a3.079,3.079,0,0,1,.018.345Z"/></svg>